M48
INCH,TZ
T1C0.0276
T2C0.0315
T3C0.0394
T4C0.0433
T5C0.1260
T6C0.0433
%
G90
G05
T1
X37250Y-35750
X37250Y-37750
T2
X33250Y-33500
X33250Y-34500
X33250Y-35500
X33250Y-36500
X36250Y-33500
X36250Y-34500
X36250Y-35500
X36250Y-36500
X31000Y-32000
X31000Y-34000
X32000Y-33000
X37250Y-33500
X37250Y-34484
T3
X38750Y-32000
X38750Y-33000
X38750Y-34000
X39750Y-32000
X39750Y-33000
X39750Y-34000
X31750Y-35250
X31750Y-36250
X31750Y-37250
T4
X39000Y-35750
X39000Y-36750
X39000Y-37750
T5
X34750Y-31500
X34750Y-38500
T6
X40000Y-35750
X40000Y-36750
X40000Y-37750
T0
M30
