G04 #@! TF.GenerationSoftware,KiCad,Pcbnew,(5.1.6)-1*
G04 #@! TF.CreationDate,2020-09-15T16:07:42-04:00*
G04 #@! TF.ProjectId,ServoLaser,53657276-6f4c-4617-9365-722e6b696361,rev?*
G04 #@! TF.SameCoordinates,Original*
G04 #@! TF.FileFunction,Copper,L2,Bot*
G04 #@! TF.FilePolarity,Positive*
%FSLAX46Y46*%
G04 Gerber Fmt 4.6, Leading zero omitted, Abs format (unit mm)*
G04 Created by KiCad (PCBNEW (5.1.6)-1) date 2020-09-15 16:07:42*
%MOMM*%
%LPD*%
G01*
G04 APERTURE LIST*
G04 #@! TA.AperFunction,ComponentPad*
%ADD10R,1.700000X1.700000*%
G04 #@! TD*
G04 #@! TA.AperFunction,ComponentPad*
%ADD11O,1.700000X1.700000*%
G04 #@! TD*
G04 #@! TA.AperFunction,ComponentPad*
%ADD12C,1.600000*%
G04 #@! TD*
G04 #@! TA.AperFunction,ComponentPad*
%ADD13C,1.400000*%
G04 #@! TD*
G04 #@! TA.AperFunction,ComponentPad*
%ADD14O,1.400000X1.400000*%
G04 #@! TD*
G04 #@! TA.AperFunction,ComponentPad*
%ADD15R,1.600000X1.600000*%
G04 #@! TD*
G04 #@! TA.AperFunction,ComponentPad*
%ADD16O,1.600000X1.600000*%
G04 #@! TD*
G04 #@! TA.AperFunction,ComponentPad*
%ADD17C,1.440000*%
G04 #@! TD*
G04 #@! TA.AperFunction,ComponentPad*
%ADD18R,2.200000X2.200000*%
G04 #@! TD*
G04 #@! TA.AperFunction,ComponentPad*
%ADD19C,2.200000*%
G04 #@! TD*
G04 #@! TA.AperFunction,ComponentPad*
%ADD20C,6.400000*%
G04 #@! TD*
G04 #@! TA.AperFunction,Conductor*
%ADD21C,0.250000*%
G04 #@! TD*
G04 #@! TA.AperFunction,Conductor*
%ADD22C,0.254000*%
G04 #@! TD*
G04 APERTURE END LIST*
D10*
X98425000Y-81280000D03*
D11*
X100965000Y-81280000D03*
X98425000Y-83820000D03*
X100965000Y-83820000D03*
X98425000Y-86360000D03*
X100965000Y-86360000D03*
D12*
X94615000Y-85090000D03*
X94615000Y-87590000D03*
D13*
X94615000Y-90805000D03*
D14*
X94615000Y-95885000D03*
D15*
X84455000Y-85090000D03*
D16*
X92075000Y-92710000D03*
X84455000Y-87630000D03*
X92075000Y-90170000D03*
X84455000Y-90170000D03*
X92075000Y-87630000D03*
X84455000Y-92710000D03*
X92075000Y-85090000D03*
D17*
X78740000Y-81280000D03*
X81280000Y-83820000D03*
X78740000Y-86360000D03*
D18*
X99060000Y-95885000D03*
D19*
X99060000Y-93345000D03*
X99060000Y-90805000D03*
D10*
X80645000Y-94615000D03*
D11*
X80645000Y-92075000D03*
X80645000Y-89535000D03*
D20*
X88265000Y-80010000D03*
X88265000Y-97790000D03*
D21*
X100965000Y-88900000D02*
X99060000Y-90805000D01*
X100965000Y-86360000D02*
X100965000Y-88900000D01*
X94615000Y-90805000D02*
X94615000Y-87590000D01*
X99060000Y-90805000D02*
X94615000Y-90805000D01*
X86995000Y-81280000D02*
X88265000Y-80010000D01*
X78740000Y-81280000D02*
X86995000Y-81280000D01*
X81534998Y-97790000D02*
X79469999Y-95725001D01*
X79469999Y-90710001D02*
X80645000Y-89535000D01*
X79469999Y-95725001D02*
X79469999Y-90710001D01*
X88265000Y-97790000D02*
X81534998Y-97790000D01*
X77694999Y-82325001D02*
X78740000Y-81280000D01*
X77694999Y-87787080D02*
X77694999Y-82325001D01*
X79442919Y-89535000D02*
X77694999Y-87787080D01*
X80645000Y-89535000D02*
X79442919Y-89535000D01*
X88265000Y-97790000D02*
X101600000Y-97790000D01*
X102475001Y-87870001D02*
X100965000Y-86360000D01*
X102475001Y-96914999D02*
X102475001Y-87870001D01*
X101600000Y-97790000D02*
X102475001Y-96914999D01*
X98425000Y-86360000D02*
X95885000Y-83820000D01*
X85725000Y-83820000D02*
X84455000Y-85090000D01*
X95885000Y-83820000D02*
X85725000Y-83820000D01*
X94615000Y-95885000D02*
X94615000Y-93345000D01*
X92565001Y-91295001D02*
X91295001Y-91295001D01*
X94615000Y-93345000D02*
X92565001Y-91295001D01*
X87630000Y-87630000D02*
X84455000Y-87630000D01*
X91295001Y-91295001D02*
X87630000Y-87630000D01*
D22*
G36*
X85743724Y-77309119D02*
G01*
X88265000Y-79830395D01*
X90786276Y-77309119D01*
X90530943Y-76962000D01*
X103201014Y-76962000D01*
X103205819Y-76964555D01*
X103297596Y-77039407D01*
X103373091Y-77130664D01*
X103378000Y-77139743D01*
X103378000Y-100661014D01*
X103375446Y-100665817D01*
X103300594Y-100757595D01*
X103209335Y-100833091D01*
X103200256Y-100838000D01*
X90530943Y-100838000D01*
X90786276Y-100490881D01*
X88265000Y-97969605D01*
X85743724Y-100490881D01*
X85999057Y-100838000D01*
X74598986Y-100838000D01*
X74594183Y-100835446D01*
X74502405Y-100760594D01*
X74426909Y-100669335D01*
X74422000Y-100660256D01*
X74422000Y-97765695D01*
X84411520Y-97765695D01*
X84480822Y-98517938D01*
X84695548Y-99242208D01*
X85047445Y-99910670D01*
X85074452Y-99951088D01*
X85564119Y-100311276D01*
X88085395Y-97790000D01*
X88444605Y-97790000D01*
X90965881Y-100311276D01*
X91455548Y-99951088D01*
X91815849Y-99287118D01*
X92039694Y-98565615D01*
X92118480Y-97814305D01*
X92049178Y-97062062D01*
X91834452Y-96337792D01*
X91482555Y-95669330D01*
X91455548Y-95628912D01*
X90965881Y-95268724D01*
X88444605Y-97790000D01*
X88085395Y-97790000D01*
X85564119Y-95268724D01*
X85074452Y-95628912D01*
X84714151Y-96292882D01*
X84490306Y-97014385D01*
X84411520Y-97765695D01*
X74422000Y-97765695D01*
X74422000Y-93765000D01*
X79156928Y-93765000D01*
X79156928Y-95465000D01*
X79169188Y-95589482D01*
X79205498Y-95709180D01*
X79264463Y-95819494D01*
X79343815Y-95916185D01*
X79440506Y-95995537D01*
X79550820Y-96054502D01*
X79670518Y-96090812D01*
X79795000Y-96103072D01*
X81495000Y-96103072D01*
X81619482Y-96090812D01*
X81739180Y-96054502D01*
X81849494Y-95995537D01*
X81946185Y-95916185D01*
X82025537Y-95819494D01*
X82084502Y-95709180D01*
X82120812Y-95589482D01*
X82133072Y-95465000D01*
X82133072Y-95089119D01*
X85743724Y-95089119D01*
X88265000Y-97610395D01*
X90786276Y-95089119D01*
X90426088Y-94599452D01*
X89762118Y-94239151D01*
X89040615Y-94015306D01*
X88289305Y-93936520D01*
X87537062Y-94005822D01*
X86812792Y-94220548D01*
X86144330Y-94572445D01*
X86103912Y-94599452D01*
X85743724Y-95089119D01*
X82133072Y-95089119D01*
X82133072Y-93765000D01*
X82120812Y-93640518D01*
X82084502Y-93520820D01*
X82025537Y-93410506D01*
X81946185Y-93313815D01*
X81849494Y-93234463D01*
X81739180Y-93175498D01*
X81666620Y-93153487D01*
X81761068Y-93059039D01*
X83063096Y-93059039D01*
X83103754Y-93193087D01*
X83223963Y-93447420D01*
X83391481Y-93673414D01*
X83599869Y-93862385D01*
X83841119Y-94007070D01*
X84105960Y-94101909D01*
X84328000Y-93980624D01*
X84328000Y-92837000D01*
X84582000Y-92837000D01*
X84582000Y-93980624D01*
X84804040Y-94101909D01*
X85068881Y-94007070D01*
X85310131Y-93862385D01*
X85518519Y-93673414D01*
X85686037Y-93447420D01*
X85806246Y-93193087D01*
X85846904Y-93059039D01*
X85724915Y-92837000D01*
X84582000Y-92837000D01*
X84328000Y-92837000D01*
X83185085Y-92837000D01*
X83063096Y-93059039D01*
X81761068Y-93059039D01*
X81798475Y-93021632D01*
X81960990Y-92778411D01*
X82072932Y-92508158D01*
X82130000Y-92221260D01*
X82130000Y-91928740D01*
X82072932Y-91641842D01*
X81960990Y-91371589D01*
X81798475Y-91128368D01*
X81591632Y-90921525D01*
X81409466Y-90799805D01*
X81526355Y-90730178D01*
X81742588Y-90535269D01*
X81916641Y-90301920D01*
X82041825Y-90039099D01*
X82086476Y-89891890D01*
X81965155Y-89662000D01*
X80772000Y-89662000D01*
X80772000Y-89682000D01*
X80518000Y-89682000D01*
X80518000Y-89662000D01*
X79324845Y-89662000D01*
X79203524Y-89891890D01*
X79248175Y-90039099D01*
X79373359Y-90301920D01*
X79547412Y-90535269D01*
X79763645Y-90730178D01*
X79880534Y-90799805D01*
X79698368Y-90921525D01*
X79491525Y-91128368D01*
X79329010Y-91371589D01*
X79217068Y-91641842D01*
X79160000Y-91928740D01*
X79160000Y-92221260D01*
X79217068Y-92508158D01*
X79329010Y-92778411D01*
X79491525Y-93021632D01*
X79623380Y-93153487D01*
X79550820Y-93175498D01*
X79440506Y-93234463D01*
X79343815Y-93313815D01*
X79264463Y-93410506D01*
X79205498Y-93520820D01*
X79169188Y-93640518D01*
X79156928Y-93765000D01*
X74422000Y-93765000D01*
X74422000Y-89178110D01*
X79203524Y-89178110D01*
X79324845Y-89408000D01*
X80518000Y-89408000D01*
X80518000Y-88214186D01*
X80772000Y-88214186D01*
X80772000Y-89408000D01*
X81965155Y-89408000D01*
X82086476Y-89178110D01*
X82041825Y-89030901D01*
X81916641Y-88768080D01*
X81742588Y-88534731D01*
X81526355Y-88339822D01*
X81276252Y-88190843D01*
X81001891Y-88093519D01*
X80772000Y-88214186D01*
X80518000Y-88214186D01*
X80288109Y-88093519D01*
X80013748Y-88190843D01*
X79763645Y-88339822D01*
X79547412Y-88534731D01*
X79373359Y-88768080D01*
X79248175Y-89030901D01*
X79203524Y-89178110D01*
X74422000Y-89178110D01*
X74422000Y-86226544D01*
X77385000Y-86226544D01*
X77385000Y-86493456D01*
X77437072Y-86755239D01*
X77539215Y-87001833D01*
X77687503Y-87223762D01*
X77876238Y-87412497D01*
X78098167Y-87560785D01*
X78344761Y-87662928D01*
X78606544Y-87715000D01*
X78873456Y-87715000D01*
X79135239Y-87662928D01*
X79381833Y-87560785D01*
X79603762Y-87412497D01*
X79792497Y-87223762D01*
X79940785Y-87001833D01*
X80042928Y-86755239D01*
X80095000Y-86493456D01*
X80095000Y-86226544D01*
X80042928Y-85964761D01*
X79940785Y-85718167D01*
X79792497Y-85496238D01*
X79603762Y-85307503D01*
X79381833Y-85159215D01*
X79135239Y-85057072D01*
X78873456Y-85005000D01*
X78606544Y-85005000D01*
X78344761Y-85057072D01*
X78098167Y-85159215D01*
X77876238Y-85307503D01*
X77687503Y-85496238D01*
X77539215Y-85718167D01*
X77437072Y-85964761D01*
X77385000Y-86226544D01*
X74422000Y-86226544D01*
X74422000Y-83686544D01*
X79925000Y-83686544D01*
X79925000Y-83953456D01*
X79977072Y-84215239D01*
X80079215Y-84461833D01*
X80227503Y-84683762D01*
X80416238Y-84872497D01*
X80638167Y-85020785D01*
X80884761Y-85122928D01*
X81146544Y-85175000D01*
X81413456Y-85175000D01*
X81675239Y-85122928D01*
X81921833Y-85020785D01*
X82143762Y-84872497D01*
X82332497Y-84683762D01*
X82480785Y-84461833D01*
X82551960Y-84290000D01*
X83016928Y-84290000D01*
X83016928Y-85890000D01*
X83029188Y-86014482D01*
X83065498Y-86134180D01*
X83124463Y-86244494D01*
X83203815Y-86341185D01*
X83300506Y-86420537D01*
X83410820Y-86479502D01*
X83530518Y-86515812D01*
X83538961Y-86516643D01*
X83340363Y-86715241D01*
X83183320Y-86950273D01*
X83075147Y-87211426D01*
X83020000Y-87488665D01*
X83020000Y-87771335D01*
X83075147Y-88048574D01*
X83183320Y-88309727D01*
X83340363Y-88544759D01*
X83540241Y-88744637D01*
X83772759Y-88900000D01*
X83540241Y-89055363D01*
X83340363Y-89255241D01*
X83183320Y-89490273D01*
X83075147Y-89751426D01*
X83020000Y-90028665D01*
X83020000Y-90311335D01*
X83075147Y-90588574D01*
X83183320Y-90849727D01*
X83340363Y-91084759D01*
X83540241Y-91284637D01*
X83775273Y-91441680D01*
X83785865Y-91446067D01*
X83599869Y-91557615D01*
X83391481Y-91746586D01*
X83223963Y-91972580D01*
X83103754Y-92226913D01*
X83063096Y-92360961D01*
X83185085Y-92583000D01*
X84328000Y-92583000D01*
X84328000Y-92563000D01*
X84582000Y-92563000D01*
X84582000Y-92583000D01*
X85724915Y-92583000D01*
X85846904Y-92360961D01*
X85806246Y-92226913D01*
X85686037Y-91972580D01*
X85518519Y-91746586D01*
X85310131Y-91557615D01*
X85124135Y-91446067D01*
X85134727Y-91441680D01*
X85369759Y-91284637D01*
X85569637Y-91084759D01*
X85726680Y-90849727D01*
X85834853Y-90588574D01*
X85890000Y-90311335D01*
X85890000Y-90028665D01*
X85834853Y-89751426D01*
X85726680Y-89490273D01*
X85569637Y-89255241D01*
X85369759Y-89055363D01*
X85137241Y-88900000D01*
X85369759Y-88744637D01*
X85569637Y-88544759D01*
X85673043Y-88390000D01*
X87315199Y-88390000D01*
X90731201Y-91806003D01*
X90755000Y-91835002D01*
X90783998Y-91858800D01*
X90870474Y-91929770D01*
X90803320Y-92030273D01*
X90695147Y-92291426D01*
X90640000Y-92568665D01*
X90640000Y-92851335D01*
X90695147Y-93128574D01*
X90803320Y-93389727D01*
X90960363Y-93624759D01*
X91160241Y-93824637D01*
X91395273Y-93981680D01*
X91656426Y-94089853D01*
X91933665Y-94145000D01*
X92216335Y-94145000D01*
X92493574Y-94089853D01*
X92754727Y-93981680D01*
X92989759Y-93824637D01*
X93189637Y-93624759D01*
X93346680Y-93389727D01*
X93416460Y-93221263D01*
X93855001Y-93659804D01*
X93855000Y-94787225D01*
X93763987Y-94848038D01*
X93578038Y-95033987D01*
X93431939Y-95252641D01*
X93331304Y-95495595D01*
X93280000Y-95753514D01*
X93280000Y-96016486D01*
X93331304Y-96274405D01*
X93431939Y-96517359D01*
X93578038Y-96736013D01*
X93763987Y-96921962D01*
X93982641Y-97068061D01*
X94225595Y-97168696D01*
X94483514Y-97220000D01*
X94746486Y-97220000D01*
X95004405Y-97168696D01*
X95247359Y-97068061D01*
X95466013Y-96921962D01*
X95651962Y-96736013D01*
X95798061Y-96517359D01*
X95898696Y-96274405D01*
X95950000Y-96016486D01*
X95950000Y-95753514D01*
X95898696Y-95495595D01*
X95798061Y-95252641D01*
X95651962Y-95033987D01*
X95466013Y-94848038D01*
X95375000Y-94787225D01*
X95375000Y-94785000D01*
X97321928Y-94785000D01*
X97321928Y-96985000D01*
X97334188Y-97109482D01*
X97370498Y-97229180D01*
X97429463Y-97339494D01*
X97508815Y-97436185D01*
X97605506Y-97515537D01*
X97715820Y-97574502D01*
X97835518Y-97610812D01*
X97960000Y-97623072D01*
X100160000Y-97623072D01*
X100284482Y-97610812D01*
X100404180Y-97574502D01*
X100514494Y-97515537D01*
X100611185Y-97436185D01*
X100690537Y-97339494D01*
X100749502Y-97229180D01*
X100785812Y-97109482D01*
X100798072Y-96985000D01*
X100798072Y-96758916D01*
X100844606Y-96805450D01*
X101038692Y-96935134D01*
X101254348Y-97024461D01*
X101483288Y-97070000D01*
X101716712Y-97070000D01*
X101945652Y-97024461D01*
X102161308Y-96935134D01*
X102355394Y-96805450D01*
X102520450Y-96640394D01*
X102650134Y-96446308D01*
X102739461Y-96230652D01*
X102785000Y-96001712D01*
X102785000Y-95768288D01*
X102739461Y-95539348D01*
X102650134Y-95323692D01*
X102520450Y-95129606D01*
X102355394Y-94964550D01*
X102161308Y-94834866D01*
X101945652Y-94745539D01*
X101716712Y-94700000D01*
X101483288Y-94700000D01*
X101254348Y-94745539D01*
X101038692Y-94834866D01*
X100844606Y-94964550D01*
X100798072Y-95011084D01*
X100798072Y-94785000D01*
X100785812Y-94660518D01*
X100749502Y-94540820D01*
X100690537Y-94430506D01*
X100611185Y-94333815D01*
X100530310Y-94267443D01*
X100597537Y-94166831D01*
X100645910Y-94050048D01*
X100679550Y-94100394D01*
X100844606Y-94265450D01*
X101038692Y-94395134D01*
X101254348Y-94484461D01*
X101483288Y-94530000D01*
X101716712Y-94530000D01*
X101945652Y-94484461D01*
X102161308Y-94395134D01*
X102355394Y-94265450D01*
X102520450Y-94100394D01*
X102650134Y-93906308D01*
X102739461Y-93690652D01*
X102785000Y-93461712D01*
X102785000Y-93228288D01*
X102739461Y-92999348D01*
X102650134Y-92783692D01*
X102520450Y-92589606D01*
X102355394Y-92424550D01*
X102161308Y-92294866D01*
X101945652Y-92205539D01*
X101716712Y-92160000D01*
X101483288Y-92160000D01*
X101254348Y-92205539D01*
X101038692Y-92294866D01*
X100844606Y-92424550D01*
X100679550Y-92589606D01*
X100645910Y-92639952D01*
X100597537Y-92523169D01*
X100407663Y-92239002D01*
X100165998Y-91997337D01*
X99884926Y-91809531D01*
X99060000Y-90984605D01*
X98235074Y-91809531D01*
X97954002Y-91997337D01*
X97712337Y-92239002D01*
X97522463Y-92523169D01*
X97391675Y-92838919D01*
X97325000Y-93174117D01*
X97325000Y-93515883D01*
X97391675Y-93851081D01*
X97522463Y-94166831D01*
X97589690Y-94267443D01*
X97508815Y-94333815D01*
X97429463Y-94430506D01*
X97370498Y-94540820D01*
X97334188Y-94660518D01*
X97321928Y-94785000D01*
X95375000Y-94785000D01*
X95375000Y-93382322D01*
X95378676Y-93344999D01*
X95375000Y-93307676D01*
X95375000Y-93307667D01*
X95364003Y-93196014D01*
X95320546Y-93052753D01*
X95249974Y-92920724D01*
X95236811Y-92904685D01*
X95178799Y-92833996D01*
X95178795Y-92833992D01*
X95155001Y-92804999D01*
X95126008Y-92781205D01*
X94480269Y-92135466D01*
X94689473Y-92144390D01*
X94949344Y-92104125D01*
X95196366Y-92013935D01*
X95297203Y-91960037D01*
X95356664Y-91726269D01*
X94615000Y-90984605D01*
X94600858Y-90998748D01*
X94421253Y-90819143D01*
X94435395Y-90805000D01*
X94794605Y-90805000D01*
X95536269Y-91546664D01*
X95770037Y-91487203D01*
X95880934Y-91248758D01*
X95943183Y-90993260D01*
X95948712Y-90863639D01*
X97317591Y-90863639D01*
X97362511Y-91202439D01*
X97472664Y-91525966D01*
X97578662Y-91724274D01*
X97853288Y-91832107D01*
X98880395Y-90805000D01*
X99239605Y-90805000D01*
X100266712Y-91832107D01*
X100541338Y-91724274D01*
X100646387Y-91510762D01*
X100679550Y-91560394D01*
X100844606Y-91725450D01*
X101038692Y-91855134D01*
X101254348Y-91944461D01*
X101483288Y-91990000D01*
X101716712Y-91990000D01*
X101945652Y-91944461D01*
X102161308Y-91855134D01*
X102355394Y-91725450D01*
X102520450Y-91560394D01*
X102650134Y-91366308D01*
X102739461Y-91150652D01*
X102785000Y-90921712D01*
X102785000Y-90688288D01*
X102739461Y-90459348D01*
X102650134Y-90243692D01*
X102520450Y-90049606D01*
X102355394Y-89884550D01*
X102161308Y-89754866D01*
X101945652Y-89665539D01*
X101716712Y-89620000D01*
X101483288Y-89620000D01*
X101254348Y-89665539D01*
X101038692Y-89754866D01*
X100844606Y-89884550D01*
X100679550Y-90049606D01*
X100650445Y-90093165D01*
X100647336Y-90084034D01*
X100541338Y-89885726D01*
X100266712Y-89777893D01*
X99239605Y-90805000D01*
X98880395Y-90805000D01*
X97853288Y-89777893D01*
X97578662Y-89885726D01*
X97427784Y-90192384D01*
X97339631Y-90522585D01*
X97317591Y-90863639D01*
X95948712Y-90863639D01*
X95954390Y-90730527D01*
X95914125Y-90470656D01*
X95823935Y-90223634D01*
X95770037Y-90122797D01*
X95536269Y-90063336D01*
X94794605Y-90805000D01*
X94435395Y-90805000D01*
X93693731Y-90063336D01*
X93510000Y-90110070D01*
X93510000Y-90028665D01*
X93481171Y-89883731D01*
X93873336Y-89883731D01*
X94615000Y-90625395D01*
X95356664Y-89883731D01*
X95297203Y-89649963D01*
X95186095Y-89598288D01*
X98032893Y-89598288D01*
X99060000Y-90625395D01*
X100087107Y-89598288D01*
X99979274Y-89323662D01*
X99672616Y-89172784D01*
X99342415Y-89084631D01*
X99001361Y-89062591D01*
X98662561Y-89107511D01*
X98339034Y-89217664D01*
X98140726Y-89323662D01*
X98032893Y-89598288D01*
X95186095Y-89598288D01*
X95058758Y-89539066D01*
X94803260Y-89476817D01*
X94540527Y-89465610D01*
X94280656Y-89505875D01*
X94033634Y-89596065D01*
X93932797Y-89649963D01*
X93873336Y-89883731D01*
X93481171Y-89883731D01*
X93454853Y-89751426D01*
X93346680Y-89490273D01*
X93189637Y-89255241D01*
X92989759Y-89055363D01*
X92757241Y-88900000D01*
X92989759Y-88744637D01*
X93151694Y-88582702D01*
X93801903Y-88582702D01*
X93873486Y-88826671D01*
X94128996Y-88947571D01*
X94403184Y-89016300D01*
X94685512Y-89030217D01*
X94965130Y-88988787D01*
X95231292Y-88893603D01*
X95356514Y-88826671D01*
X95428097Y-88582702D01*
X94615000Y-87769605D01*
X93801903Y-88582702D01*
X93151694Y-88582702D01*
X93189637Y-88544759D01*
X93346680Y-88309727D01*
X93355414Y-88288642D01*
X93378329Y-88331514D01*
X93622298Y-88403097D01*
X94435395Y-87590000D01*
X94794605Y-87590000D01*
X95607702Y-88403097D01*
X95851671Y-88331514D01*
X95972571Y-88076004D01*
X96041300Y-87801816D01*
X96055217Y-87519488D01*
X96013787Y-87239870D01*
X95918603Y-86973708D01*
X95851671Y-86848486D01*
X95607702Y-86776903D01*
X94794605Y-87590000D01*
X94435395Y-87590000D01*
X93622298Y-86776903D01*
X93378329Y-86848486D01*
X93337012Y-86935804D01*
X93189637Y-86715241D01*
X92989759Y-86515363D01*
X92757241Y-86360000D01*
X92989759Y-86204637D01*
X93189637Y-86004759D01*
X93345000Y-85772241D01*
X93500363Y-86004759D01*
X93700241Y-86204637D01*
X93900869Y-86338692D01*
X93873486Y-86353329D01*
X93801903Y-86597298D01*
X94615000Y-87410395D01*
X95428097Y-86597298D01*
X95356514Y-86353329D01*
X95327659Y-86339676D01*
X95529759Y-86204637D01*
X95729637Y-86004759D01*
X95886680Y-85769727D01*
X95994853Y-85508574D01*
X96050000Y-85231335D01*
X96050000Y-85059802D01*
X96983790Y-85993593D01*
X96940000Y-86213740D01*
X96940000Y-86506260D01*
X96997068Y-86793158D01*
X97109010Y-87063411D01*
X97271525Y-87306632D01*
X97478368Y-87513475D01*
X97721589Y-87675990D01*
X97991842Y-87787932D01*
X98278740Y-87845000D01*
X98571260Y-87845000D01*
X98858158Y-87787932D01*
X99128411Y-87675990D01*
X99371632Y-87513475D01*
X99578475Y-87306632D01*
X99696100Y-87130594D01*
X99867412Y-87360269D01*
X100083645Y-87555178D01*
X100333748Y-87704157D01*
X100608109Y-87801481D01*
X100838000Y-87680814D01*
X100838000Y-86487000D01*
X101092000Y-86487000D01*
X101092000Y-87680814D01*
X101321891Y-87801481D01*
X101596252Y-87704157D01*
X101846355Y-87555178D01*
X102062588Y-87360269D01*
X102236641Y-87126920D01*
X102361825Y-86864099D01*
X102406476Y-86716890D01*
X102285155Y-86487000D01*
X101092000Y-86487000D01*
X100838000Y-86487000D01*
X100818000Y-86487000D01*
X100818000Y-86233000D01*
X100838000Y-86233000D01*
X100838000Y-86213000D01*
X101092000Y-86213000D01*
X101092000Y-86233000D01*
X102285155Y-86233000D01*
X102406476Y-86003110D01*
X102361825Y-85855901D01*
X102236641Y-85593080D01*
X102062588Y-85359731D01*
X101846355Y-85164822D01*
X101729466Y-85095195D01*
X101911632Y-84973475D01*
X102118475Y-84766632D01*
X102280990Y-84523411D01*
X102392932Y-84253158D01*
X102450000Y-83966260D01*
X102450000Y-83673740D01*
X102392932Y-83386842D01*
X102280990Y-83116589D01*
X102118475Y-82873368D01*
X101911632Y-82666525D01*
X101737240Y-82550000D01*
X101911632Y-82433475D01*
X102118475Y-82226632D01*
X102280990Y-81983411D01*
X102392932Y-81713158D01*
X102450000Y-81426260D01*
X102450000Y-81133740D01*
X102392932Y-80846842D01*
X102280990Y-80576589D01*
X102118475Y-80333368D01*
X101911632Y-80126525D01*
X101668411Y-79964010D01*
X101398158Y-79852068D01*
X101111260Y-79795000D01*
X100818740Y-79795000D01*
X100531842Y-79852068D01*
X100261589Y-79964010D01*
X100018368Y-80126525D01*
X99886513Y-80258380D01*
X99864502Y-80185820D01*
X99805537Y-80075506D01*
X99726185Y-79978815D01*
X99629494Y-79899463D01*
X99519180Y-79840498D01*
X99399482Y-79804188D01*
X99275000Y-79791928D01*
X97575000Y-79791928D01*
X97450518Y-79804188D01*
X97330820Y-79840498D01*
X97220506Y-79899463D01*
X97123815Y-79978815D01*
X97044463Y-80075506D01*
X96985498Y-80185820D01*
X96949188Y-80305518D01*
X96936928Y-80430000D01*
X96936928Y-82130000D01*
X96949188Y-82254482D01*
X96985498Y-82374180D01*
X97044463Y-82484494D01*
X97123815Y-82581185D01*
X97220506Y-82660537D01*
X97330820Y-82719502D01*
X97403380Y-82741513D01*
X97271525Y-82873368D01*
X97109010Y-83116589D01*
X96997068Y-83386842D01*
X96940000Y-83673740D01*
X96940000Y-83800199D01*
X96448804Y-83309003D01*
X96425001Y-83279999D01*
X96309276Y-83185026D01*
X96177247Y-83114454D01*
X96033986Y-83070997D01*
X95922333Y-83060000D01*
X95922322Y-83060000D01*
X95885000Y-83056324D01*
X95847678Y-83060000D01*
X90529472Y-83060000D01*
X90786276Y-82710881D01*
X88265000Y-80189605D01*
X85743724Y-82710881D01*
X86000528Y-83060000D01*
X85762322Y-83060000D01*
X85724999Y-83056324D01*
X85687676Y-83060000D01*
X85687667Y-83060000D01*
X85576014Y-83070997D01*
X85432753Y-83114454D01*
X85300724Y-83185026D01*
X85184999Y-83279999D01*
X85161201Y-83308997D01*
X84818270Y-83651928D01*
X83655000Y-83651928D01*
X83530518Y-83664188D01*
X83410820Y-83700498D01*
X83300506Y-83759463D01*
X83203815Y-83838815D01*
X83124463Y-83935506D01*
X83065498Y-84045820D01*
X83029188Y-84165518D01*
X83016928Y-84290000D01*
X82551960Y-84290000D01*
X82582928Y-84215239D01*
X82635000Y-83953456D01*
X82635000Y-83686544D01*
X82582928Y-83424761D01*
X82480785Y-83178167D01*
X82332497Y-82956238D01*
X82143762Y-82767503D01*
X81921833Y-82619215D01*
X81675239Y-82517072D01*
X81413456Y-82465000D01*
X81146544Y-82465000D01*
X80884761Y-82517072D01*
X80638167Y-82619215D01*
X80416238Y-82767503D01*
X80227503Y-82956238D01*
X80079215Y-83178167D01*
X79977072Y-83424761D01*
X79925000Y-83686544D01*
X74422000Y-83686544D01*
X74422000Y-82215560D01*
X77984045Y-82215560D01*
X78045932Y-82451368D01*
X78287790Y-82564266D01*
X78547027Y-82627811D01*
X78813680Y-82639561D01*
X79077501Y-82599063D01*
X79328353Y-82507875D01*
X79434068Y-82451368D01*
X79495955Y-82215560D01*
X78740000Y-81459605D01*
X77984045Y-82215560D01*
X74422000Y-82215560D01*
X74422000Y-81353680D01*
X77380439Y-81353680D01*
X77420937Y-81617501D01*
X77512125Y-81868353D01*
X77568632Y-81974068D01*
X77804440Y-82035955D01*
X78560395Y-81280000D01*
X78919605Y-81280000D01*
X79675560Y-82035955D01*
X79911368Y-81974068D01*
X80024266Y-81732210D01*
X80087811Y-81472973D01*
X80099561Y-81206320D01*
X80059063Y-80942499D01*
X79967875Y-80691647D01*
X79911368Y-80585932D01*
X79675560Y-80524045D01*
X78919605Y-81280000D01*
X78560395Y-81280000D01*
X77804440Y-80524045D01*
X77568632Y-80585932D01*
X77455734Y-80827790D01*
X77392189Y-81087027D01*
X77380439Y-81353680D01*
X74422000Y-81353680D01*
X74422000Y-80344440D01*
X77984045Y-80344440D01*
X78740000Y-81100395D01*
X79495955Y-80344440D01*
X79434068Y-80108632D01*
X79192210Y-79995734D01*
X79151256Y-79985695D01*
X84411520Y-79985695D01*
X84480822Y-80737938D01*
X84695548Y-81462208D01*
X85047445Y-82130670D01*
X85074452Y-82171088D01*
X85564119Y-82531276D01*
X88085395Y-80010000D01*
X88444605Y-80010000D01*
X90965881Y-82531276D01*
X91455548Y-82171088D01*
X91815849Y-81507118D01*
X92039694Y-80785615D01*
X92118480Y-80034305D01*
X92049178Y-79282062D01*
X91834452Y-78557792D01*
X91482555Y-77889330D01*
X91455548Y-77848912D01*
X90965881Y-77488724D01*
X88444605Y-80010000D01*
X88085395Y-80010000D01*
X85564119Y-77488724D01*
X85074452Y-77848912D01*
X84714151Y-78512882D01*
X84490306Y-79234385D01*
X84411520Y-79985695D01*
X79151256Y-79985695D01*
X78932973Y-79932189D01*
X78666320Y-79920439D01*
X78402499Y-79960937D01*
X78151647Y-80052125D01*
X78045932Y-80108632D01*
X77984045Y-80344440D01*
X74422000Y-80344440D01*
X74422000Y-77138986D01*
X74424555Y-77134181D01*
X74499407Y-77042404D01*
X74590664Y-76966909D01*
X74599743Y-76962000D01*
X85999057Y-76962000D01*
X85743724Y-77309119D01*
G37*
X85743724Y-77309119D02*
X88265000Y-79830395D01*
X90786276Y-77309119D01*
X90530943Y-76962000D01*
X103201014Y-76962000D01*
X103205819Y-76964555D01*
X103297596Y-77039407D01*
X103373091Y-77130664D01*
X103378000Y-77139743D01*
X103378000Y-100661014D01*
X103375446Y-100665817D01*
X103300594Y-100757595D01*
X103209335Y-100833091D01*
X103200256Y-100838000D01*
X90530943Y-100838000D01*
X90786276Y-100490881D01*
X88265000Y-97969605D01*
X85743724Y-100490881D01*
X85999057Y-100838000D01*
X74598986Y-100838000D01*
X74594183Y-100835446D01*
X74502405Y-100760594D01*
X74426909Y-100669335D01*
X74422000Y-100660256D01*
X74422000Y-97765695D01*
X84411520Y-97765695D01*
X84480822Y-98517938D01*
X84695548Y-99242208D01*
X85047445Y-99910670D01*
X85074452Y-99951088D01*
X85564119Y-100311276D01*
X88085395Y-97790000D01*
X88444605Y-97790000D01*
X90965881Y-100311276D01*
X91455548Y-99951088D01*
X91815849Y-99287118D01*
X92039694Y-98565615D01*
X92118480Y-97814305D01*
X92049178Y-97062062D01*
X91834452Y-96337792D01*
X91482555Y-95669330D01*
X91455548Y-95628912D01*
X90965881Y-95268724D01*
X88444605Y-97790000D01*
X88085395Y-97790000D01*
X85564119Y-95268724D01*
X85074452Y-95628912D01*
X84714151Y-96292882D01*
X84490306Y-97014385D01*
X84411520Y-97765695D01*
X74422000Y-97765695D01*
X74422000Y-93765000D01*
X79156928Y-93765000D01*
X79156928Y-95465000D01*
X79169188Y-95589482D01*
X79205498Y-95709180D01*
X79264463Y-95819494D01*
X79343815Y-95916185D01*
X79440506Y-95995537D01*
X79550820Y-96054502D01*
X79670518Y-96090812D01*
X79795000Y-96103072D01*
X81495000Y-96103072D01*
X81619482Y-96090812D01*
X81739180Y-96054502D01*
X81849494Y-95995537D01*
X81946185Y-95916185D01*
X82025537Y-95819494D01*
X82084502Y-95709180D01*
X82120812Y-95589482D01*
X82133072Y-95465000D01*
X82133072Y-95089119D01*
X85743724Y-95089119D01*
X88265000Y-97610395D01*
X90786276Y-95089119D01*
X90426088Y-94599452D01*
X89762118Y-94239151D01*
X89040615Y-94015306D01*
X88289305Y-93936520D01*
X87537062Y-94005822D01*
X86812792Y-94220548D01*
X86144330Y-94572445D01*
X86103912Y-94599452D01*
X85743724Y-95089119D01*
X82133072Y-95089119D01*
X82133072Y-93765000D01*
X82120812Y-93640518D01*
X82084502Y-93520820D01*
X82025537Y-93410506D01*
X81946185Y-93313815D01*
X81849494Y-93234463D01*
X81739180Y-93175498D01*
X81666620Y-93153487D01*
X81761068Y-93059039D01*
X83063096Y-93059039D01*
X83103754Y-93193087D01*
X83223963Y-93447420D01*
X83391481Y-93673414D01*
X83599869Y-93862385D01*
X83841119Y-94007070D01*
X84105960Y-94101909D01*
X84328000Y-93980624D01*
X84328000Y-92837000D01*
X84582000Y-92837000D01*
X84582000Y-93980624D01*
X84804040Y-94101909D01*
X85068881Y-94007070D01*
X85310131Y-93862385D01*
X85518519Y-93673414D01*
X85686037Y-93447420D01*
X85806246Y-93193087D01*
X85846904Y-93059039D01*
X85724915Y-92837000D01*
X84582000Y-92837000D01*
X84328000Y-92837000D01*
X83185085Y-92837000D01*
X83063096Y-93059039D01*
X81761068Y-93059039D01*
X81798475Y-93021632D01*
X81960990Y-92778411D01*
X82072932Y-92508158D01*
X82130000Y-92221260D01*
X82130000Y-91928740D01*
X82072932Y-91641842D01*
X81960990Y-91371589D01*
X81798475Y-91128368D01*
X81591632Y-90921525D01*
X81409466Y-90799805D01*
X81526355Y-90730178D01*
X81742588Y-90535269D01*
X81916641Y-90301920D01*
X82041825Y-90039099D01*
X82086476Y-89891890D01*
X81965155Y-89662000D01*
X80772000Y-89662000D01*
X80772000Y-89682000D01*
X80518000Y-89682000D01*
X80518000Y-89662000D01*
X79324845Y-89662000D01*
X79203524Y-89891890D01*
X79248175Y-90039099D01*
X79373359Y-90301920D01*
X79547412Y-90535269D01*
X79763645Y-90730178D01*
X79880534Y-90799805D01*
X79698368Y-90921525D01*
X79491525Y-91128368D01*
X79329010Y-91371589D01*
X79217068Y-91641842D01*
X79160000Y-91928740D01*
X79160000Y-92221260D01*
X79217068Y-92508158D01*
X79329010Y-92778411D01*
X79491525Y-93021632D01*
X79623380Y-93153487D01*
X79550820Y-93175498D01*
X79440506Y-93234463D01*
X79343815Y-93313815D01*
X79264463Y-93410506D01*
X79205498Y-93520820D01*
X79169188Y-93640518D01*
X79156928Y-93765000D01*
X74422000Y-93765000D01*
X74422000Y-89178110D01*
X79203524Y-89178110D01*
X79324845Y-89408000D01*
X80518000Y-89408000D01*
X80518000Y-88214186D01*
X80772000Y-88214186D01*
X80772000Y-89408000D01*
X81965155Y-89408000D01*
X82086476Y-89178110D01*
X82041825Y-89030901D01*
X81916641Y-88768080D01*
X81742588Y-88534731D01*
X81526355Y-88339822D01*
X81276252Y-88190843D01*
X81001891Y-88093519D01*
X80772000Y-88214186D01*
X80518000Y-88214186D01*
X80288109Y-88093519D01*
X80013748Y-88190843D01*
X79763645Y-88339822D01*
X79547412Y-88534731D01*
X79373359Y-88768080D01*
X79248175Y-89030901D01*
X79203524Y-89178110D01*
X74422000Y-89178110D01*
X74422000Y-86226544D01*
X77385000Y-86226544D01*
X77385000Y-86493456D01*
X77437072Y-86755239D01*
X77539215Y-87001833D01*
X77687503Y-87223762D01*
X77876238Y-87412497D01*
X78098167Y-87560785D01*
X78344761Y-87662928D01*
X78606544Y-87715000D01*
X78873456Y-87715000D01*
X79135239Y-87662928D01*
X79381833Y-87560785D01*
X79603762Y-87412497D01*
X79792497Y-87223762D01*
X79940785Y-87001833D01*
X80042928Y-86755239D01*
X80095000Y-86493456D01*
X80095000Y-86226544D01*
X80042928Y-85964761D01*
X79940785Y-85718167D01*
X79792497Y-85496238D01*
X79603762Y-85307503D01*
X79381833Y-85159215D01*
X79135239Y-85057072D01*
X78873456Y-85005000D01*
X78606544Y-85005000D01*
X78344761Y-85057072D01*
X78098167Y-85159215D01*
X77876238Y-85307503D01*
X77687503Y-85496238D01*
X77539215Y-85718167D01*
X77437072Y-85964761D01*
X77385000Y-86226544D01*
X74422000Y-86226544D01*
X74422000Y-83686544D01*
X79925000Y-83686544D01*
X79925000Y-83953456D01*
X79977072Y-84215239D01*
X80079215Y-84461833D01*
X80227503Y-84683762D01*
X80416238Y-84872497D01*
X80638167Y-85020785D01*
X80884761Y-85122928D01*
X81146544Y-85175000D01*
X81413456Y-85175000D01*
X81675239Y-85122928D01*
X81921833Y-85020785D01*
X82143762Y-84872497D01*
X82332497Y-84683762D01*
X82480785Y-84461833D01*
X82551960Y-84290000D01*
X83016928Y-84290000D01*
X83016928Y-85890000D01*
X83029188Y-86014482D01*
X83065498Y-86134180D01*
X83124463Y-86244494D01*
X83203815Y-86341185D01*
X83300506Y-86420537D01*
X83410820Y-86479502D01*
X83530518Y-86515812D01*
X83538961Y-86516643D01*
X83340363Y-86715241D01*
X83183320Y-86950273D01*
X83075147Y-87211426D01*
X83020000Y-87488665D01*
X83020000Y-87771335D01*
X83075147Y-88048574D01*
X83183320Y-88309727D01*
X83340363Y-88544759D01*
X83540241Y-88744637D01*
X83772759Y-88900000D01*
X83540241Y-89055363D01*
X83340363Y-89255241D01*
X83183320Y-89490273D01*
X83075147Y-89751426D01*
X83020000Y-90028665D01*
X83020000Y-90311335D01*
X83075147Y-90588574D01*
X83183320Y-90849727D01*
X83340363Y-91084759D01*
X83540241Y-91284637D01*
X83775273Y-91441680D01*
X83785865Y-91446067D01*
X83599869Y-91557615D01*
X83391481Y-91746586D01*
X83223963Y-91972580D01*
X83103754Y-92226913D01*
X83063096Y-92360961D01*
X83185085Y-92583000D01*
X84328000Y-92583000D01*
X84328000Y-92563000D01*
X84582000Y-92563000D01*
X84582000Y-92583000D01*
X85724915Y-92583000D01*
X85846904Y-92360961D01*
X85806246Y-92226913D01*
X85686037Y-91972580D01*
X85518519Y-91746586D01*
X85310131Y-91557615D01*
X85124135Y-91446067D01*
X85134727Y-91441680D01*
X85369759Y-91284637D01*
X85569637Y-91084759D01*
X85726680Y-90849727D01*
X85834853Y-90588574D01*
X85890000Y-90311335D01*
X85890000Y-90028665D01*
X85834853Y-89751426D01*
X85726680Y-89490273D01*
X85569637Y-89255241D01*
X85369759Y-89055363D01*
X85137241Y-88900000D01*
X85369759Y-88744637D01*
X85569637Y-88544759D01*
X85673043Y-88390000D01*
X87315199Y-88390000D01*
X90731201Y-91806003D01*
X90755000Y-91835002D01*
X90783998Y-91858800D01*
X90870474Y-91929770D01*
X90803320Y-92030273D01*
X90695147Y-92291426D01*
X90640000Y-92568665D01*
X90640000Y-92851335D01*
X90695147Y-93128574D01*
X90803320Y-93389727D01*
X90960363Y-93624759D01*
X91160241Y-93824637D01*
X91395273Y-93981680D01*
X91656426Y-94089853D01*
X91933665Y-94145000D01*
X92216335Y-94145000D01*
X92493574Y-94089853D01*
X92754727Y-93981680D01*
X92989759Y-93824637D01*
X93189637Y-93624759D01*
X93346680Y-93389727D01*
X93416460Y-93221263D01*
X93855001Y-93659804D01*
X93855000Y-94787225D01*
X93763987Y-94848038D01*
X93578038Y-95033987D01*
X93431939Y-95252641D01*
X93331304Y-95495595D01*
X93280000Y-95753514D01*
X93280000Y-96016486D01*
X93331304Y-96274405D01*
X93431939Y-96517359D01*
X93578038Y-96736013D01*
X93763987Y-96921962D01*
X93982641Y-97068061D01*
X94225595Y-97168696D01*
X94483514Y-97220000D01*
X94746486Y-97220000D01*
X95004405Y-97168696D01*
X95247359Y-97068061D01*
X95466013Y-96921962D01*
X95651962Y-96736013D01*
X95798061Y-96517359D01*
X95898696Y-96274405D01*
X95950000Y-96016486D01*
X95950000Y-95753514D01*
X95898696Y-95495595D01*
X95798061Y-95252641D01*
X95651962Y-95033987D01*
X95466013Y-94848038D01*
X95375000Y-94787225D01*
X95375000Y-94785000D01*
X97321928Y-94785000D01*
X97321928Y-96985000D01*
X97334188Y-97109482D01*
X97370498Y-97229180D01*
X97429463Y-97339494D01*
X97508815Y-97436185D01*
X97605506Y-97515537D01*
X97715820Y-97574502D01*
X97835518Y-97610812D01*
X97960000Y-97623072D01*
X100160000Y-97623072D01*
X100284482Y-97610812D01*
X100404180Y-97574502D01*
X100514494Y-97515537D01*
X100611185Y-97436185D01*
X100690537Y-97339494D01*
X100749502Y-97229180D01*
X100785812Y-97109482D01*
X100798072Y-96985000D01*
X100798072Y-96758916D01*
X100844606Y-96805450D01*
X101038692Y-96935134D01*
X101254348Y-97024461D01*
X101483288Y-97070000D01*
X101716712Y-97070000D01*
X101945652Y-97024461D01*
X102161308Y-96935134D01*
X102355394Y-96805450D01*
X102520450Y-96640394D01*
X102650134Y-96446308D01*
X102739461Y-96230652D01*
X102785000Y-96001712D01*
X102785000Y-95768288D01*
X102739461Y-95539348D01*
X102650134Y-95323692D01*
X102520450Y-95129606D01*
X102355394Y-94964550D01*
X102161308Y-94834866D01*
X101945652Y-94745539D01*
X101716712Y-94700000D01*
X101483288Y-94700000D01*
X101254348Y-94745539D01*
X101038692Y-94834866D01*
X100844606Y-94964550D01*
X100798072Y-95011084D01*
X100798072Y-94785000D01*
X100785812Y-94660518D01*
X100749502Y-94540820D01*
X100690537Y-94430506D01*
X100611185Y-94333815D01*
X100530310Y-94267443D01*
X100597537Y-94166831D01*
X100645910Y-94050048D01*
X100679550Y-94100394D01*
X100844606Y-94265450D01*
X101038692Y-94395134D01*
X101254348Y-94484461D01*
X101483288Y-94530000D01*
X101716712Y-94530000D01*
X101945652Y-94484461D01*
X102161308Y-94395134D01*
X102355394Y-94265450D01*
X102520450Y-94100394D01*
X102650134Y-93906308D01*
X102739461Y-93690652D01*
X102785000Y-93461712D01*
X102785000Y-93228288D01*
X102739461Y-92999348D01*
X102650134Y-92783692D01*
X102520450Y-92589606D01*
X102355394Y-92424550D01*
X102161308Y-92294866D01*
X101945652Y-92205539D01*
X101716712Y-92160000D01*
X101483288Y-92160000D01*
X101254348Y-92205539D01*
X101038692Y-92294866D01*
X100844606Y-92424550D01*
X100679550Y-92589606D01*
X100645910Y-92639952D01*
X100597537Y-92523169D01*
X100407663Y-92239002D01*
X100165998Y-91997337D01*
X99884926Y-91809531D01*
X99060000Y-90984605D01*
X98235074Y-91809531D01*
X97954002Y-91997337D01*
X97712337Y-92239002D01*
X97522463Y-92523169D01*
X97391675Y-92838919D01*
X97325000Y-93174117D01*
X97325000Y-93515883D01*
X97391675Y-93851081D01*
X97522463Y-94166831D01*
X97589690Y-94267443D01*
X97508815Y-94333815D01*
X97429463Y-94430506D01*
X97370498Y-94540820D01*
X97334188Y-94660518D01*
X97321928Y-94785000D01*
X95375000Y-94785000D01*
X95375000Y-93382322D01*
X95378676Y-93344999D01*
X95375000Y-93307676D01*
X95375000Y-93307667D01*
X95364003Y-93196014D01*
X95320546Y-93052753D01*
X95249974Y-92920724D01*
X95236811Y-92904685D01*
X95178799Y-92833996D01*
X95178795Y-92833992D01*
X95155001Y-92804999D01*
X95126008Y-92781205D01*
X94480269Y-92135466D01*
X94689473Y-92144390D01*
X94949344Y-92104125D01*
X95196366Y-92013935D01*
X95297203Y-91960037D01*
X95356664Y-91726269D01*
X94615000Y-90984605D01*
X94600858Y-90998748D01*
X94421253Y-90819143D01*
X94435395Y-90805000D01*
X94794605Y-90805000D01*
X95536269Y-91546664D01*
X95770037Y-91487203D01*
X95880934Y-91248758D01*
X95943183Y-90993260D01*
X95948712Y-90863639D01*
X97317591Y-90863639D01*
X97362511Y-91202439D01*
X97472664Y-91525966D01*
X97578662Y-91724274D01*
X97853288Y-91832107D01*
X98880395Y-90805000D01*
X99239605Y-90805000D01*
X100266712Y-91832107D01*
X100541338Y-91724274D01*
X100646387Y-91510762D01*
X100679550Y-91560394D01*
X100844606Y-91725450D01*
X101038692Y-91855134D01*
X101254348Y-91944461D01*
X101483288Y-91990000D01*
X101716712Y-91990000D01*
X101945652Y-91944461D01*
X102161308Y-91855134D01*
X102355394Y-91725450D01*
X102520450Y-91560394D01*
X102650134Y-91366308D01*
X102739461Y-91150652D01*
X102785000Y-90921712D01*
X102785000Y-90688288D01*
X102739461Y-90459348D01*
X102650134Y-90243692D01*
X102520450Y-90049606D01*
X102355394Y-89884550D01*
X102161308Y-89754866D01*
X101945652Y-89665539D01*
X101716712Y-89620000D01*
X101483288Y-89620000D01*
X101254348Y-89665539D01*
X101038692Y-89754866D01*
X100844606Y-89884550D01*
X100679550Y-90049606D01*
X100650445Y-90093165D01*
X100647336Y-90084034D01*
X100541338Y-89885726D01*
X100266712Y-89777893D01*
X99239605Y-90805000D01*
X98880395Y-90805000D01*
X97853288Y-89777893D01*
X97578662Y-89885726D01*
X97427784Y-90192384D01*
X97339631Y-90522585D01*
X97317591Y-90863639D01*
X95948712Y-90863639D01*
X95954390Y-90730527D01*
X95914125Y-90470656D01*
X95823935Y-90223634D01*
X95770037Y-90122797D01*
X95536269Y-90063336D01*
X94794605Y-90805000D01*
X94435395Y-90805000D01*
X93693731Y-90063336D01*
X93510000Y-90110070D01*
X93510000Y-90028665D01*
X93481171Y-89883731D01*
X93873336Y-89883731D01*
X94615000Y-90625395D01*
X95356664Y-89883731D01*
X95297203Y-89649963D01*
X95186095Y-89598288D01*
X98032893Y-89598288D01*
X99060000Y-90625395D01*
X100087107Y-89598288D01*
X99979274Y-89323662D01*
X99672616Y-89172784D01*
X99342415Y-89084631D01*
X99001361Y-89062591D01*
X98662561Y-89107511D01*
X98339034Y-89217664D01*
X98140726Y-89323662D01*
X98032893Y-89598288D01*
X95186095Y-89598288D01*
X95058758Y-89539066D01*
X94803260Y-89476817D01*
X94540527Y-89465610D01*
X94280656Y-89505875D01*
X94033634Y-89596065D01*
X93932797Y-89649963D01*
X93873336Y-89883731D01*
X93481171Y-89883731D01*
X93454853Y-89751426D01*
X93346680Y-89490273D01*
X93189637Y-89255241D01*
X92989759Y-89055363D01*
X92757241Y-88900000D01*
X92989759Y-88744637D01*
X93151694Y-88582702D01*
X93801903Y-88582702D01*
X93873486Y-88826671D01*
X94128996Y-88947571D01*
X94403184Y-89016300D01*
X94685512Y-89030217D01*
X94965130Y-88988787D01*
X95231292Y-88893603D01*
X95356514Y-88826671D01*
X95428097Y-88582702D01*
X94615000Y-87769605D01*
X93801903Y-88582702D01*
X93151694Y-88582702D01*
X93189637Y-88544759D01*
X93346680Y-88309727D01*
X93355414Y-88288642D01*
X93378329Y-88331514D01*
X93622298Y-88403097D01*
X94435395Y-87590000D01*
X94794605Y-87590000D01*
X95607702Y-88403097D01*
X95851671Y-88331514D01*
X95972571Y-88076004D01*
X96041300Y-87801816D01*
X96055217Y-87519488D01*
X96013787Y-87239870D01*
X95918603Y-86973708D01*
X95851671Y-86848486D01*
X95607702Y-86776903D01*
X94794605Y-87590000D01*
X94435395Y-87590000D01*
X93622298Y-86776903D01*
X93378329Y-86848486D01*
X93337012Y-86935804D01*
X93189637Y-86715241D01*
X92989759Y-86515363D01*
X92757241Y-86360000D01*
X92989759Y-86204637D01*
X93189637Y-86004759D01*
X93345000Y-85772241D01*
X93500363Y-86004759D01*
X93700241Y-86204637D01*
X93900869Y-86338692D01*
X93873486Y-86353329D01*
X93801903Y-86597298D01*
X94615000Y-87410395D01*
X95428097Y-86597298D01*
X95356514Y-86353329D01*
X95327659Y-86339676D01*
X95529759Y-86204637D01*
X95729637Y-86004759D01*
X95886680Y-85769727D01*
X95994853Y-85508574D01*
X96050000Y-85231335D01*
X96050000Y-85059802D01*
X96983790Y-85993593D01*
X96940000Y-86213740D01*
X96940000Y-86506260D01*
X96997068Y-86793158D01*
X97109010Y-87063411D01*
X97271525Y-87306632D01*
X97478368Y-87513475D01*
X97721589Y-87675990D01*
X97991842Y-87787932D01*
X98278740Y-87845000D01*
X98571260Y-87845000D01*
X98858158Y-87787932D01*
X99128411Y-87675990D01*
X99371632Y-87513475D01*
X99578475Y-87306632D01*
X99696100Y-87130594D01*
X99867412Y-87360269D01*
X100083645Y-87555178D01*
X100333748Y-87704157D01*
X100608109Y-87801481D01*
X100838000Y-87680814D01*
X100838000Y-86487000D01*
X101092000Y-86487000D01*
X101092000Y-87680814D01*
X101321891Y-87801481D01*
X101596252Y-87704157D01*
X101846355Y-87555178D01*
X102062588Y-87360269D01*
X102236641Y-87126920D01*
X102361825Y-86864099D01*
X102406476Y-86716890D01*
X102285155Y-86487000D01*
X101092000Y-86487000D01*
X100838000Y-86487000D01*
X100818000Y-86487000D01*
X100818000Y-86233000D01*
X100838000Y-86233000D01*
X100838000Y-86213000D01*
X101092000Y-86213000D01*
X101092000Y-86233000D01*
X102285155Y-86233000D01*
X102406476Y-86003110D01*
X102361825Y-85855901D01*
X102236641Y-85593080D01*
X102062588Y-85359731D01*
X101846355Y-85164822D01*
X101729466Y-85095195D01*
X101911632Y-84973475D01*
X102118475Y-84766632D01*
X102280990Y-84523411D01*
X102392932Y-84253158D01*
X102450000Y-83966260D01*
X102450000Y-83673740D01*
X102392932Y-83386842D01*
X102280990Y-83116589D01*
X102118475Y-82873368D01*
X101911632Y-82666525D01*
X101737240Y-82550000D01*
X101911632Y-82433475D01*
X102118475Y-82226632D01*
X102280990Y-81983411D01*
X102392932Y-81713158D01*
X102450000Y-81426260D01*
X102450000Y-81133740D01*
X102392932Y-80846842D01*
X102280990Y-80576589D01*
X102118475Y-80333368D01*
X101911632Y-80126525D01*
X101668411Y-79964010D01*
X101398158Y-79852068D01*
X101111260Y-79795000D01*
X100818740Y-79795000D01*
X100531842Y-79852068D01*
X100261589Y-79964010D01*
X100018368Y-80126525D01*
X99886513Y-80258380D01*
X99864502Y-80185820D01*
X99805537Y-80075506D01*
X99726185Y-79978815D01*
X99629494Y-79899463D01*
X99519180Y-79840498D01*
X99399482Y-79804188D01*
X99275000Y-79791928D01*
X97575000Y-79791928D01*
X97450518Y-79804188D01*
X97330820Y-79840498D01*
X97220506Y-79899463D01*
X97123815Y-79978815D01*
X97044463Y-80075506D01*
X96985498Y-80185820D01*
X96949188Y-80305518D01*
X96936928Y-80430000D01*
X96936928Y-82130000D01*
X96949188Y-82254482D01*
X96985498Y-82374180D01*
X97044463Y-82484494D01*
X97123815Y-82581185D01*
X97220506Y-82660537D01*
X97330820Y-82719502D01*
X97403380Y-82741513D01*
X97271525Y-82873368D01*
X97109010Y-83116589D01*
X96997068Y-83386842D01*
X96940000Y-83673740D01*
X96940000Y-83800199D01*
X96448804Y-83309003D01*
X96425001Y-83279999D01*
X96309276Y-83185026D01*
X96177247Y-83114454D01*
X96033986Y-83070997D01*
X95922333Y-83060000D01*
X95922322Y-83060000D01*
X95885000Y-83056324D01*
X95847678Y-83060000D01*
X90529472Y-83060000D01*
X90786276Y-82710881D01*
X88265000Y-80189605D01*
X85743724Y-82710881D01*
X86000528Y-83060000D01*
X85762322Y-83060000D01*
X85724999Y-83056324D01*
X85687676Y-83060000D01*
X85687667Y-83060000D01*
X85576014Y-83070997D01*
X85432753Y-83114454D01*
X85300724Y-83185026D01*
X85184999Y-83279999D01*
X85161201Y-83308997D01*
X84818270Y-83651928D01*
X83655000Y-83651928D01*
X83530518Y-83664188D01*
X83410820Y-83700498D01*
X83300506Y-83759463D01*
X83203815Y-83838815D01*
X83124463Y-83935506D01*
X83065498Y-84045820D01*
X83029188Y-84165518D01*
X83016928Y-84290000D01*
X82551960Y-84290000D01*
X82582928Y-84215239D01*
X82635000Y-83953456D01*
X82635000Y-83686544D01*
X82582928Y-83424761D01*
X82480785Y-83178167D01*
X82332497Y-82956238D01*
X82143762Y-82767503D01*
X81921833Y-82619215D01*
X81675239Y-82517072D01*
X81413456Y-82465000D01*
X81146544Y-82465000D01*
X80884761Y-82517072D01*
X80638167Y-82619215D01*
X80416238Y-82767503D01*
X80227503Y-82956238D01*
X80079215Y-83178167D01*
X79977072Y-83424761D01*
X79925000Y-83686544D01*
X74422000Y-83686544D01*
X74422000Y-82215560D01*
X77984045Y-82215560D01*
X78045932Y-82451368D01*
X78287790Y-82564266D01*
X78547027Y-82627811D01*
X78813680Y-82639561D01*
X79077501Y-82599063D01*
X79328353Y-82507875D01*
X79434068Y-82451368D01*
X79495955Y-82215560D01*
X78740000Y-81459605D01*
X77984045Y-82215560D01*
X74422000Y-82215560D01*
X74422000Y-81353680D01*
X77380439Y-81353680D01*
X77420937Y-81617501D01*
X77512125Y-81868353D01*
X77568632Y-81974068D01*
X77804440Y-82035955D01*
X78560395Y-81280000D01*
X78919605Y-81280000D01*
X79675560Y-82035955D01*
X79911368Y-81974068D01*
X80024266Y-81732210D01*
X80087811Y-81472973D01*
X80099561Y-81206320D01*
X80059063Y-80942499D01*
X79967875Y-80691647D01*
X79911368Y-80585932D01*
X79675560Y-80524045D01*
X78919605Y-81280000D01*
X78560395Y-81280000D01*
X77804440Y-80524045D01*
X77568632Y-80585932D01*
X77455734Y-80827790D01*
X77392189Y-81087027D01*
X77380439Y-81353680D01*
X74422000Y-81353680D01*
X74422000Y-80344440D01*
X77984045Y-80344440D01*
X78740000Y-81100395D01*
X79495955Y-80344440D01*
X79434068Y-80108632D01*
X79192210Y-79995734D01*
X79151256Y-79985695D01*
X84411520Y-79985695D01*
X84480822Y-80737938D01*
X84695548Y-81462208D01*
X85047445Y-82130670D01*
X85074452Y-82171088D01*
X85564119Y-82531276D01*
X88085395Y-80010000D01*
X88444605Y-80010000D01*
X90965881Y-82531276D01*
X91455548Y-82171088D01*
X91815849Y-81507118D01*
X92039694Y-80785615D01*
X92118480Y-80034305D01*
X92049178Y-79282062D01*
X91834452Y-78557792D01*
X91482555Y-77889330D01*
X91455548Y-77848912D01*
X90965881Y-77488724D01*
X88444605Y-80010000D01*
X88085395Y-80010000D01*
X85564119Y-77488724D01*
X85074452Y-77848912D01*
X84714151Y-78512882D01*
X84490306Y-79234385D01*
X84411520Y-79985695D01*
X79151256Y-79985695D01*
X78932973Y-79932189D01*
X78666320Y-79920439D01*
X78402499Y-79960937D01*
X78151647Y-80052125D01*
X78045932Y-80108632D01*
X77984045Y-80344440D01*
X74422000Y-80344440D01*
X74422000Y-77138986D01*
X74424555Y-77134181D01*
X74499407Y-77042404D01*
X74590664Y-76966909D01*
X74599743Y-76962000D01*
X85999057Y-76962000D01*
X85743724Y-77309119D01*
M02*
